<?xml version="1.0" encoding="UTF-8" standalone="no"?>
<!-- Generator: Adobe Illustrator 26.3.1, SVG Export Plug-In . SVG Version: 6.00 Build 0)  -->

<svg
   xmlns:dc="http://purl.org/dc/elements/1.1/"
   xmlns:cc="http://creativecommons.org/ns#"
   xmlns:rdf="http://www.w3.org/1999/02/22-rdf-syntax-ns#"
   xmlns:svg="http://www.w3.org/2000/svg"
   xmlns="http://www.w3.org/2000/svg"
   xmlns:sodipodi="http://sodipodi.sourceforge.net/DTD/sodipodi-0.dtd"
   xmlns:inkscape="http://www.inkscape.org/namespaces/inkscape"
   version="1.1"
   id="svg830"
   x="0px"
   y="0px"
   viewBox="0 0 70.699998 101.5"
   xml:space="preserve"
   sodipodi:docname="favicon-fermo.svg"
   inkscape:version="0.92.5 (2060ec1f9f, 2020-04-08)"
   width="70.699997"
   height="101.5"
   inkscape:export-filename="/home/mitz/aWageningen/MZWUR2/MP-FERMO/mp-fermo/assets/favicon_fermo.png"
   inkscape:export-xdpi="99"
   inkscape:export-ydpi="99"><metadata
   id="metadata16"><rdf:RDF><cc:Work
       rdf:about=""><dc:format>image/svg+xml</dc:format><dc:type
         rdf:resource="http://purl.org/dc/dcmitype/StillImage" /><dc:title></dc:title></cc:Work></rdf:RDF></metadata><defs
   id="defs14" />
<style
   type="text/css"
   id="style2">
	.st0{fill:#515251;}
</style>
<sodipodi:namedview
   bordercolor="#666666"
   borderopacity="1.0"
   id="base"
   inkscape:current-layer="svg830"
   inkscape:cx="134.11663"
   inkscape:cy="54.662569"
   inkscape:document-units="mm"
   inkscape:pageopacity="0.0"
   inkscape:pageshadow="2"
   inkscape:window-height="1016"
   inkscape:window-maximized="1"
   inkscape:window-width="1920"
   inkscape:window-x="0"
   inkscape:window-y="27"
   inkscape:zoom="1.979899"
   pagecolor="#ffffff"
   showgrid="false"
   fit-margin-top="0"
   fit-margin-left="0"
   fit-margin-right="0"
   fit-margin-bottom="0">
	</sodipodi:namedview>
<g
   id="g11"
   transform="translate(-85.6,-109.9)"
   inkscape:export-filename="/home/mitz/aWageningen/MZWUR2/MP-FERMO/mp-fermo/assets/favicon_fermo.png"
   inkscape:export-xdpi="99"
   inkscape:export-ydpi="99"
   style="fill:#116789;fill-opacity:1">
	<path
   class="st0"
   d="m 137.8,149.1 c 1.5,7.7 3.3,16.2 6,24.3 l 4.2,-24.3 z"
   id="path5"
   inkscape:connector-curvature="0"
   style="fill:#116789;fill-opacity:1" />
	<path
   class="st0"
   d="m 134.2,149.1 h -8.3 l 2,-12 h 4.1 c -1.3,-6.8 -2.8,-13.9 -4.3,-14.3 0,0 0,0 0,0 -2.6,0 -5.8,13.6 -8.1,23.5 -5.3,22.5 -12.4,52.7 -30.4,65.1 h 26 l 6.5,-36.6 h 19 c -3,-8.5 -5,-17.6 -6.5,-25.7 z"
   id="path7"
   inkscape:connector-curvature="0"
   style="fill:#116789;fill-opacity:1" />
	<path
   class="st0"
   d="m 116.1,145.6 c 3.8,-16.4 6.2,-26.3 11.6,-26.3 0,0 0.1,0 0.1,0 4.2,0.1 5.7,6.4 7.8,17.8 h 16.1 l 4.6,-27.2 h -53.4 l -17.3,99.5 c 18,-10.8 25.2,-41.3 30.5,-63.8 z"
   id="path9"
   inkscape:connector-curvature="0"
   style="fill:#116789;fill-opacity:1" />
</g>
</svg>